# xmcd
#
# Track frame offsets:
#	187
#	14870
#	46400
#	62735
#	97032
#	117692
#	144552
#	175145
#	203577
#
# Disc length: 2954 seconds
#
# Revision: 1
# Processed by: cddbd v1.5.1PL0 Copyright (c) Steve Scherf et al.
# Submitted via: CDex 1.50Beta5
#
DISCID=860b8809
DTITLE=山本まさゆき - タイムボカン王道復古・特訓満漢全席
DYEAR=1993
DGENRE=
TTITLE0=山本まさゆき/悪役ドアが開く
TTITLE1=小原乃梨子/特訓満漢全席
TTITLE2=山本まさゆき/ヤッターマンの歌 ’93
TTITLE3=小原乃梨子/特訓満漢全席
TTITLE4=山本まさゆき/風雪マタタビンガー
TTITLE5=小原乃梨子/特訓満漢全席
TTITLE6=山本まさゆき/TIME BOKAN MEGA MIX
TTITLE7=小原乃梨子/特訓満漢全席
TTITLE8=小原乃梨子/さんあく18年
EXTD=
EXTT0=
EXTT1=
EXTT2=
EXTT3=
EXTT4=
EXTT5=
EXTT6=
EXTT7=
EXTT8=
PLAYORDER=
